<?xml version="1.0" encoding="UTF-8"?>
<svg xmlns="http://www.w3.org/2000/svg" xmlns:xlink="http://www.w3.org/1999/xlink" width="16px" height="18px" viewBox="0 0 16 18" version="1.1">
<g id="surface1">
<path style=" stroke:none;fill-rule:nonzero;fill:rgb(0%,0%,0%);fill-opacity:1;" d="M 3.429688 0 C 1.535156 0 0 1.511719 0 3.375 L 0 14.625 C 0 16.488281 1.535156 18 3.429688 18 L 14.855469 18 C 15.488281 18 16 17.496094 16 16.875 C 16 16.253906 15.488281 15.75 14.855469 15.75 L 14.855469 13.5 C 15.488281 13.5 16 12.996094 16 12.375 L 16 1.125 C 16 0.503906 15.488281 0 14.855469 0 Z M 3.429688 13.5 L 12.570312 13.5 L 12.570312 15.75 L 3.429688 15.75 C 2.796875 15.75 2.285156 15.246094 2.285156 14.625 C 2.285156 14.003906 2.796875 13.5 3.429688 13.5 Z M 4.570312 5.0625 C 4.570312 4.753906 4.828125 4.5 5.144531 4.5 L 12 4.5 C 12.3125 4.5 12.570312 4.753906 12.570312 5.0625 C 12.570312 5.371094 12.3125 5.625 12 5.625 L 5.144531 5.625 C 4.828125 5.625 4.570312 5.371094 4.570312 5.0625 Z M 5.144531 6.75 L 12 6.75 C 12.3125 6.75 12.570312 7.003906 12.570312 7.3125 C 12.570312 7.621094 12.3125 7.875 12 7.875 L 5.144531 7.875 C 4.828125 7.875 4.570312 7.621094 4.570312 7.3125 C 4.570312 7.003906 4.828125 6.75 5.144531 6.75 Z M 5.144531 6.75 "/>
</g>
</svg>
