<?xml version="1.0" encoding="UTF-8"?>
<svg xmlns="http://www.w3.org/2000/svg" xmlns:xlink="http://www.w3.org/1999/xlink" width="16px" height="16px" viewBox="0 0 16 12" version="1.1">
<g id="surface1">
<path style=" stroke:none;fill-rule:nonzero;fill:rgb(0%,0%,0%);fill-opacity:1;" d="M 8 0 C 8.441406 0 8.800781 0.335938 8.800781 0.75 L 8.800781 2.25 L 11.800781 2.25 C 12.796875 2.25 13.601562 3.003906 13.601562 3.9375 L 13.601562 10.3125 C 13.601562 11.246094 12.796875 12 11.800781 12 L 4.199219 12 C 3.203125 12 2.398438 11.246094 2.398438 10.3125 L 2.398438 3.9375 C 2.398438 3.003906 3.203125 2.25 4.199219 2.25 L 7.199219 2.25 L 7.199219 0.75 C 7.199219 0.335938 7.558594 0 8 0 Z M 5.199219 9 C 4.980469 9 4.800781 9.167969 4.800781 9.375 C 4.800781 9.582031 4.980469 9.75 5.199219 9.75 L 6 9.75 C 6.21875 9.75 6.398438 9.582031 6.398438 9.375 C 6.398438 9.167969 6.21875 9 6 9 Z M 7.601562 9 C 7.378906 9 7.199219 9.167969 7.199219 9.375 C 7.199219 9.582031 7.378906 9.75 7.601562 9.75 L 8.398438 9.75 C 8.621094 9.75 8.800781 9.582031 8.800781 9.375 C 8.800781 9.167969 8.621094 9 8.398438 9 Z M 10 9 C 9.78125 9 9.601562 9.167969 9.601562 9.375 C 9.601562 9.582031 9.78125 9.75 10 9.75 L 10.800781 9.75 C 11.019531 9.75 11.199219 9.582031 11.199219 9.375 C 11.199219 9.167969 11.019531 9 10.800781 9 Z M 6.601562 6 C 6.601562 5.480469 6.152344 5.0625 5.601562 5.0625 C 5.046875 5.0625 4.601562 5.480469 4.601562 6 C 4.601562 6.519531 5.046875 6.9375 5.601562 6.9375 C 6.152344 6.9375 6.601562 6.519531 6.601562 6 Z M 10.398438 6.9375 C 10.953125 6.9375 11.398438 6.519531 11.398438 6 C 11.398438 5.480469 10.953125 5.0625 10.398438 5.0625 C 9.847656 5.0625 9.398438 5.480469 9.398438 6 C 9.398438 6.519531 9.847656 6.9375 10.398438 6.9375 Z M 1.199219 5.25 L 1.601562 5.25 L 1.601562 9.75 L 1.199219 9.75 C 0.539062 9.75 0 9.246094 0 8.625 L 0 6.375 C 0 5.753906 0.539062 5.25 1.199219 5.25 Z M 14.800781 5.25 C 15.460938 5.25 16 5.753906 16 6.375 L 16 8.625 C 16 9.246094 15.460938 9.75 14.800781 9.75 L 14.398438 9.75 L 14.398438 5.25 Z M 14.800781 5.25 "/>
</g>
</svg>
